# xmcd
#
# Track frame offsets: 
#        150
#        31644
#        64338
#        102335
#        135491
#        173771
#        204081
#        236110
#        273733
#        303342
#        330431
#
# Disc length: 4793 seconds
#
# Revision: 0
# Processed by: cddbd v1.5.2PL0 Copyright (c) Steve Scherf et al.
# Submitted via: ExactAudioCopy v1.3
#
DISCID=9112b70b
DTITLE=Various Artist - Akella Presents - vol. 175 - Long Time of Blu
DTITLE=es-Rock  CD1
DYEAR=2019
DGENRE=Blues
TTITLE0=Jan Lindqvist - Guess Who
TTITLE1=Juniper Inc. - Mean Old Dog
TTITLE2=Teddi P's Uom Band - Angel over Me
TTITLE3=Big Al Dorn and the Blues Howlers - I've Had Too Much to Drink
TTITLE4=Jeffrey David's Blues Connection - How Blue Can You Get
TTITLE5=The Allman Brothers Band - Soulshine
TTITLE6=Dave Steffen Band - Help Me
TTITLE7=Vince Hawkins and Company Slave - Cathouse
TTITLE8=Chris Beard - It's Over
TTITLE9=Hadden Sayers - Alone With The Blues
TTITLE10=The Steel Woods - Rock That Says My Name
EXTD=
EXTT0=
EXTT1=
EXTT2=
EXTT3=
EXTT4=
EXTT5=
EXTT6=
EXTT7=
EXTT8=
EXTT9=
EXTT10=
PLAYORDER=
